<?xml version="1.0" standalone="no"?>
<!DOCTYPE svg PUBLIC "-//W3C//DTD SVG 20010904//EN"
 "http://www.w3.org/TR/2001/REC-SVG-20010904/DTD/svg10.dtd">
<svg version="1.0" xmlns="http://www.w3.org/2000/svg"
 width="300.000000pt" height="300.000000pt" viewBox="0 0 300.000000 300.000000"
 preserveAspectRatio="xMidYMid meet">
<metadata>
Created by potrace 1.10, written by Peter Selinger 2001-2011
</metadata>
<g transform="translate(0.000000,300.000000) scale(0.100000,-0.100000)"
fill="#000000" stroke="none">
<path d="M300 1838 l0 -263 1200 0 1200 0 0 263 0 262 -1200 0 -1200 0 0 -262z
m2374 220 c8 -30 8 -422 0 -442 -6 -14 -118 -16 -1174 -16 l-1168 0 -6 23 c-3
12 -6 113 -6 224 0 170 2 204 16 217 14 14 134 16 1174 16 l1158 0 6 -22z"/>
<path d="M780 1830 c0 -61 16 -83 22 -32 l4 27 14 -27 c7 -16 19 -28 27 -28
11 0 11 6 -4 30 -17 29 -17 31 0 60 23 38 6 40 -22 3 l-20 -28 -1 28 c0 15 -4
27 -10 27 -6 0 -10 -27 -10 -60z"/>
<path d="M896 1878 c-8 -23 -26 -93 -26 -100 0 -5 5 -8 10 -8 6 0 10 7 10 15
0 21 37 19 49 -2 17 -31 20 -10 7 47 -8 37 -18 56 -29 58 -10 2 -19 -2 -21
-10z"/>
<path d="M977 1883 c-11 -10 -8 -113 2 -113 6 0 11 24 13 53 l4 52 8 -52 c7
-42 12 -53 27 -53 16 0 19 8 19 60 0 74 -20 81 -21 8 -1 -54 -3 -52 -14 15 -5
34 -22 47 -38 30z"/>
<path d="M1117 1840 c5 -42 3 -50 -11 -50 -9 0 -16 7 -16 15 0 8 -4 15 -10 15
-14 0 -13 -23 2 -38 16 -16 48 -15 52 1 3 6 7 33 10 60 5 42 3 47 -14 47 -17
0 -18 -5 -13 -50z"/>
<path d="M1170 1873 c0 -7 6 -12 13 -10 7 1 13 -12 15 -35 2 -29 0 -38 -12
-38 -9 0 -16 -4 -16 -10 0 -5 15 -10 34 -10 19 0 38 5 41 10 3 6 -1 10 -9 10
-12 0 -16 10 -16 40 0 22 4 39 9 38 5 -2 11 1 13 7 1 5 -14 10 -34 10 -26 1
-38 -3 -38 -12z"/>
<path d="M1264 1879 c-5 -9 3 -13 19 -10 4 0 7 -21 7 -49 0 -36 4 -50 14 -50
11 0 14 12 13 47 -1 32 2 48 11 48 6 0 13 5 15 10 3 12 -71 16 -79 4z"/>
<path d="M1375 1874 c-21 -21 -16 -83 8 -98 27 -17 51 5 55 48 5 58 -28 85
-63 50z m43 -48 c3 -32 1 -37 -15 -34 -19 3 -29 38 -19 65 10 26 31 8 34 -31z"/>
<path d="M1469 1886 c0 -1 -2 -27 -3 -58 -2 -43 1 -58 11 -58 9 0 11 8 7 25
-6 23 -3 25 25 25 17 0 31 5 31 10 0 6 -14 10 -31 10 -20 0 -29 4 -26 13 2 6
13 12 25 12 34 1 26 20 -8 21 -16 1 -30 1 -31 0z"/>
<path d="M1562 1833 c3 -55 5 -58 30 -61 33 -4 50 24 46 74 -4 51 -21 46 -22
-6 -1 -34 -5 -45 -18 -48 -15 -3 -18 4 -18 47 0 29 -5 51 -10 51 -7 0 -10 -22
-8 -57z"/>
<path d="M1660 1829 c0 -33 4 -59 10 -59 6 0 10 11 10 25 0 16 6 25 15 25 9 0
15 -9 15 -25 0 -14 4 -25 9 -25 11 0 13 109 3 112 -4 0 -19 2 -34 3 -28 2 -28
1 -28 -56z m50 21 c0 -11 -7 -20 -15 -20 -8 0 -15 9 -15 20 0 11 7 20 15 20 8
0 15 -9 15 -20z"/>
<path d="M1754 1878 c-5 -8 3 -12 19 -9 4 0 7 -17 7 -39 0 -29 -4 -40 -15 -40
-8 0 -15 -4 -15 -10 0 -5 18 -10 40 -10 22 0 40 5 40 10 0 6 -7 10 -15 10 -11
0 -15 11 -15 40 0 29 4 40 15 40 8 0 15 4 15 9 0 11 -69 10 -76 -1z"/>
<path d="M1862 1878 c-13 -13 -16 -76 -4 -95 4 -6 22 -11 40 -11 28 1 32 4 32
30 0 23 -4 28 -25 28 -14 0 -25 -4 -25 -10 0 -5 7 -10 15 -10 8 0 15 -4 15
-10 0 -5 -9 -10 -20 -10 -16 0 -20 7 -20 34 0 40 14 53 36 35 8 -6 18 -9 22
-5 8 8 -25 36 -43 36 -6 0 -16 -5 -23 -12z"/>
<path d="M1966 1878 c-24 -77 -27 -135 -5 -95 12 21 49 23 49 2 0 -8 5 -15 10
-15 13 0 12 4 -3 65 -13 49 -42 73 -51 43z"/>
<path d="M2048 1883 c-2 -4 -1 -33 3 -63 7 -62 11 -57 10 10 -1 33 1 41 8 30
6 -8 11 -32 11 -52 0 -31 4 -38 20 -38 18 0 20 7 20 61 0 39 -4 58 -10 54 -7
-4 -8 -24 -4 -51 4 -28 3 -44 -4 -44 -6 0 -12 21 -14 47 -2 35 -7 49 -20 51
-9 2 -18 -1 -20 -5z"/>
<path d="M2152 1839 c-15 -62 -15 -69 -2 -69 6 0 10 7 10 15 0 21 30 19 46 -2
17 -25 26 -12 15 23 -5 16 -12 41 -15 57 -4 17 -13 27 -24 27 -14 0 -22 -13
-30 -51z"/>
<path d="M1477 1461 c-41 -19 -42 -21 -34 -51 5 -20 6 -20 53 1 60 25 58 23
44 48 -13 25 -14 25 -63 2z"/>
<path d="M1992 1401 c-10 -27 -15 -31 -37 -25 -30 8 -33 -6 -4 -24 15 -10 19
-20 15 -38 -7 -27 -4 -29 24 -12 16 10 23 9 41 -7 l21 -20 -6 31 c-5 22 -2 35
9 44 21 18 19 33 -5 25 -16 -5 -23 0 -34 25 l-13 32 -11 -31z"/>
<path d="M981 1396 c-9 -23 -15 -27 -36 -22 -30 8 -33 -4 -5 -22 15 -9 19 -19
14 -37 -7 -28 -2 -30 26 -13 15 10 23 9 39 -6 24 -21 25 -18 11 18 -8 21 -6
27 10 36 27 15 25 32 -3 25 -18 -5 -25 -1 -33 22 l-11 28 -12 -29z"/>
<path d="M1545 1401 c-6 -5 -26 -14 -46 -20 -28 -9 -36 -16 -32 -30 3 -13 -4
-22 -27 -31 -79 -33 -124 -101 -124 -190 0 -58 32 -136 59 -147 32 -12 14 -25
-25 -19 -38 6 -40 5 -40 -19 l0 -25 216 0 215 0 -3 23 c-3 21 -7 22 -113 24
-60 1 -120 2 -131 2 -21 1 -21 2 -5 36 14 31 27 39 113 72 96 37 106 45 90 71
-6 9 -31 2 -102 -28 -92 -39 -95 -40 -127 -25 -30 15 -36 15 -65 1 -17 -9 -33
-16 -36 -16 -2 0 -2 25 0 55 5 62 26 97 78 133 44 29 57 28 65 -7 l6 -30 47
20 c26 11 48 22 50 23 3 4 -39 118 -48 129 -3 4 -10 3 -15 -2z m9 -74 c14 -39
-6 -57 -34 -32 -23 21 -25 36 -8 53 17 17 31 10 42 -21z m-104 -292 c0 -18 -5
-25 -19 -25 -11 0 -21 6 -24 13 -7 20 4 37 24 37 14 0 19 -7 19 -25z m-2 -72
c2 -8 -5 -13 -17 -13 -12 0 -21 6 -21 16 0 18 31 15 38 -3z"/>
<path d="M1566 1225 c-45 -20 -47 -22 -31 -38 21 -21 44 -22 73 -1 21 15 30
48 15 57 -5 2 -30 -6 -57 -18z"/>
<path d="M860 1220 c0 -19 7 -20 135 -20 128 0 135 1 135 20 0 19 -7 20 -135
20 -128 0 -135 -1 -135 -20z"/>
<path d="M1870 1220 c0 -19 7 -20 135 -20 128 0 135 1 135 20 0 19 -7 20 -135
20 -128 0 -135 -1 -135 -20z"/>
</g>
</svg>
